{
    "asset" : {
        "generator" : "Khronos glTF Blender I/O v1.3.48",
        "version" : "2.0"
    },
    "scene" : 0,
    "scenes" : [
        {
            "name" : "Scene",
            "nodes" : [
                0,
                1,
                2,
                3
            ]
        }
    ],
    "nodes" : [
        {
            "name" : "Light",
            "rotation" : [
                0.16907575726509094,
                0.7558803558349609,
                -0.27217137813568115,
                0.570947527885437
            ],
            "translation" : [
                -3.8226654529571533,
                5.903861999511719,
                4.9146728515625
            ]
        },
        {
            "name" : "Camera",
            "rotation" : [
                0.4865647256374359,
                0.32531148195266724,
                -0.2015417218208313,
                0.7853713631629944
            ],
            "translation" : [
                7.358890056610107,
                4.958309173583984,
                6.925790786743164
            ]
        },
        {
            "mesh" : 0,
            "name" : "Saloon",
            "translation" : [
                0,
                -0.05000000074505806,
                0
            ]
        },
        {
            "name" : "Light.001",
            "rotation" : [
                0.16907575726509094,
                0.7558803558349609,
                -0.27217137813568115,
                0.570947527885437
            ],
            "translation" : [
                1.5556652545928955,
                3.572376251220703,
                3.0236165523529053
            ]
        }
    ],
    "materials" : [
        {
            "doubleSided" : true,
            "emissiveFactor" : [
                0,
                0,
                0
            ],
            "name" : "Material",
            "pbrMetallicRoughness" : {
                "baseColorTexture" : {
                    "index" : 0,
                    "texCoord" : 0
                },
                "metallicFactor" : 0,
                "roughnessFactor" : 0.5
            }
        }
    ],
    "meshes" : [
        {
            "name" : "Plane.002",
            "primitives" : [
                {
                    "attributes" : {
                        "POSITION" : 0,
                        "NORMAL" : 1,
                        "TEXCOORD_0" : 2
                    },
                    "indices" : 3,
                    "material" : 0
                }
            ]
        }
    ],
    "textures" : [
        {
            "source" : 0
        }
    ],
    "images" : [
        {
            "mimeType" : "image/jpeg",
            "name" : "UV",
            "uri" : "UV/UV.jpg"
        }
    ],
    "accessors" : [
        {
            "bufferView" : 0,
            "componentType" : 5126,
            "count" : 4969,
            "max" : [
                1.6012402772903442,
                1.322553038597107,
                1.543280005455017
            ],
            "min" : [
                -1.6012402772903442,
                0,
                -1.2840003967285156
            ],
            "type" : "VEC3"
        },
        {
            "bufferView" : 1,
            "componentType" : 5126,
            "count" : 4969,
            "type" : "VEC3"
        },
        {
            "bufferView" : 2,
            "componentType" : 5126,
            "count" : 4969,
            "type" : "VEC2"
        },
        {
            "bufferView" : 3,
            "componentType" : 5123,
            "count" : 7620,
            "type" : "SCALAR"
        }
    ],
    "bufferViews" : [
        {
            "buffer" : 0,
            "byteLength" : 59628,
            "byteOffset" : 0
        },
        {
            "buffer" : 0,
            "byteLength" : 59628,
            "byteOffset" : 59628
        },
        {
            "buffer" : 0,
            "byteLength" : 39752,
            "byteOffset" : 119256
        },
        {
            "buffer" : 0,
            "byteLength" : 15240,
            "byteOffset" : 159008
        }
    ],
    "buffers" : [
        {
            "byteLength" : 174248,
            "uri" : "saloon_UV.bin"
        }
    ]
}
